<?xml version="1.0" encoding="UTF-8" standalone="no"?>
<!-- Created with Inkscape (http://www.inkscape.org/) -->
<svg
   xmlns:svg="http://www.w3.org/2000/svg"
   xmlns="http://www.w3.org/2000/svg"
   version="1.0"
   width="693"
   height="169"
   viewBox="-0.449 -0.802 693 169"
   id="svg2"
   xml:space="preserve">
	<defs
   id="defs4">
	</defs>
	<g
   id="g6">
		<g
   id="g8">
			<path
   d="M 183.738,129.568 C 168.236,144.39 145.117,153.883 119.585,153.883 C 72.892,153.883 35.047,122.535 35.047,83.862 C 35.047,45.198 72.891,13.842 119.585,13.842 C 149.489,13.842 175.777,26.711 190.801,46.123 L 203.375,46.219 C 185.717,18.81 149.359,0 107.373,0 C 48.071,0 0,37.525 0,83.812 C 0,130.09 48.071,167.619 107.373,167.619 C 145.08,167.619 178.248,152.449 197.407,129.505 L 183.738,129.568 L 183.738,129.568 z "
   style="fill:#253778"
   id="path10" />
		</g>
		<g
   id="g12">
			<path
   d="M 118.532,120.512 L 125.161,120.527 C 128.053,120.527 130.396,118.177 130.396,115.285 L 130.396,92.536 C 130.396,89.643 128.052,87.294 125.161,87.294 L 110.034,87.22 L 110.034,120.484 L 118.881,120.512 L 121.185,136.705 L 71.109,136.705 L 71.109,120.534 L 84.045,120.534 L 84.045,48.237 L 71.109,48.237 L 71.109,32.074 L 123.383,32.066 L 121.65,48.564 L 110.034,48.585 L 110.034,72.725 L 120.889,72.725 L 125.16,72.762 C 128.052,72.762 130.395,70.418 130.395,67.527 L 130.357,64.061 L 130.357,57.251 L 130.395,53.785 C 130.395,50.89 128.051,48.55 125.16,48.55 L 121.302,48.565 L 123.034,32.067 L 148.256,32.067 C 152.599,32.067 156.116,35.584 156.116,39.927 L 156.116,71.566 C 156.116,75.909 152.599,79.426 148.256,79.426 L 148.256,82.421 C 152.599,82.421 156.116,85.938 156.116,90.281 L 156.116,128.85 C 156.116,133.188 152.599,136.704 148.256,136.704 L 120.961,136.704 L 118.532,120.512 L 118.532,120.512 z "
   style="fill:#253778"
   id="path14" />
		</g>
		<g
   id="g16">
			<path
   d="M 199.61,89.236 L 193.186,89.236 C 193.186,89.236 189.489,89.351 189.489,92.934 L 189.489,103.789 C 189.489,107.596 193.186,107.596 193.186,107.596 L 204.274,107.596 L 204.274,89.236 L 199.263,89.236 L 197.645,76.298 L 204.274,76.298 L 204.274,67.872 C 204.274,65.328 201.612,65.219 201.612,65.219 L 171.011,65.219 L 171.011,52.399 L 219.051,52.399 C 219.051,52.399 226.332,52.514 226.332,59.671 L 226.332,107.713 L 235.571,107.713 L 235.571,120.533 L 204.39,120.533 L 204.39,109.793 L 195.724,120.533 L 176.552,120.533 C 176.552,120.533 169.047,120.533 169.047,113.261 L 169.047,83.813 C 169.047,76.417 176.667,76.299 176.667,76.299 L 197.996,76.299 L 199.61,89.236 L 199.61,89.236 z "
   style="fill:#253778"
   id="path18" />
		</g>
		<g
   id="g20">
			<polygon
   points="311.325,120.534 311.325,107.714 300.356,107.714 300.356,52.399 280.146,52.399 280.146,120.534 311.325,120.534 "
   style="fill:#253778"
   id="polygon22" />
		</g>
		<g
   id="g24">
			<path
   d="M 269.174,107.714 L 280.146,107.714 L 280.146,109.679 L 271.488,120.534 L 250.698,120.534 C 243.308,120.534 243.191,113.144 243.191,113.144 L 243.191,65.22 L 233.721,65.22 L 233.721,52.4 L 265.366,52.4 L 265.366,104.022 C 265.367,104.021 265.599,107.714 269.174,107.714 L 269.174,107.714 z "
   style="fill:#253778"
   id="path26" />
		</g>
		<g
   id="g28">
			<polygon
   points="387.088,52.399 387.088,65.22 398.063,65.22 398.063,120.534 418.271,120.534 418.271,52.399 387.088,52.399 "
   style="fill:#253778"
   id="polygon30" />
		</g>
		<g
   id="g32">
			<path
   d="M 429.242,65.22 L 418.272,65.22 L 418.272,63.255 L 426.938,52.4 L 447.728,52.4 C 455.118,52.4 455.232,59.79 455.232,59.79 L 455.232,107.714 L 464.703,107.714 L 464.703,120.535 L 433.057,120.535 L 433.057,68.911 C 433.058,68.911 432.825,65.22 429.242,65.22 L 429.242,65.22 z "
   style="fill:#253778"
   id="path34" />
		</g>
		<g
   id="g36">
			<polygon
   points="309.719,29.992 309.719,42.813 320.689,42.813 320.689,120.534 340.899,120.534 340.899,29.992 309.719,29.992 "
   style="fill:#253778"
   id="polygon38" />
		</g>
		<g
   id="g40">
			<path
   d="M 377.97,83.93 L 377.97,107.714 L 388.94,107.714 L 388.94,120.534 L 357.76,120.534 L 357.76,91.087 C 357.76,83.697 350.253,83.697 350.253,83.697 L 340.9,83.697 L 340.9,74.343 L 361.682,52.4 L 377.97,52.4 L 377.97,65.105 L 366.65,65.105 L 358.106,73.996 L 368.729,73.996 C 368.729,73.995 377.97,73.995 377.97,83.93 L 377.97,83.93 z "
   style="fill:#253778"
   id="path42" />
		</g>
		<g
   id="g44">
			<polygon
   points="572.916,28.142 572.916,40.965 583.887,40.965 583.887,120.534 604.097,120.534 604.097,28.142 572.916,28.142 "
   style="fill:#253778"
   id="polygon46" />
		</g>
		<g
   id="g48">
			<path
   d="M 615.067,65.22 L 604.097,65.22 L 604.097,63.255 L 612.869,52.4 L 633.544,52.4 C 640.94,52.4 641.057,59.79 641.057,59.79 L 641.057,107.714 L 650.527,107.714 L 650.527,120.535 L 618.882,120.535 L 618.882,68.911 C 618.883,68.911 618.65,65.22 615.067,65.22 L 615.067,65.22 z "
   style="fill:#253778"
   id="path50" />
		</g>
		<g
   id="g52">
			<path
   d="M 500.809,83.732 L 507.314,83.732 L 507.314,65.871 C 507.314,64.423 506.147,63.255 504.696,63.255 L 495.269,63.255 C 493.826,63.255 492.65,64.423 492.65,65.871 L 492.65,83.732 L 501.381,83.732 L 501.614,96.517 L 492.649,96.517 L 492.649,102.173 C 492.649,102.173 492.881,107.712 498.082,107.712 L 527.762,107.712 L 527.762,120.533 L 479.952,120.533 C 475.609,120.533 472.092,117.015 472.092,112.679 L 472.092,60.251 C 472.092,55.916 475.61,52.399 479.952,52.399 L 519.902,52.399 C 524.245,52.399 527.762,55.916 527.762,60.251 L 527.762,96.518 L 500.574,96.518 L 500.809,83.732 L 500.809,83.732 z "
   style="fill:#253778"
   id="path54" />
		</g>
		<g
   id="g56">
			<path
   d="M 572.162,65.162 L 565.007,65.162 C 559.35,65.162 559.35,70.702 559.35,70.702 L 559.517,102.174 C 559.517,102.174 559.749,107.713 564.948,107.713 L 583.889,107.713 L 574.65,120.534 L 546.82,120.534 C 542.483,120.534 538.966,117.016 538.966,112.68 L 538.966,60.251 C 538.966,55.916 542.483,52.399 546.82,52.399 L 572.222,52.399 L 572.162,65.162 L 572.162,65.162 z "
   style="fill:#253778"
   id="path58" />
		</g>
		<g
   id="g60">
			<path
   d="M 685.75,107.597 L 692.102,107.597 L 692.102,120.417 L 667.273,120.417 C 659.883,120.417 659.769,113.029 659.769,113.029 L 659.769,65.105 L 650.296,65.105 L 650.296,52.282 L 659.769,52.282 L 659.769,39.462 L 680.783,39.462 L 680.783,52.282 L 689.332,52.282 L 689.332,65.105 L 680.783,65.105 L 680.783,103.907 C 680.782,103.907 682.167,107.597 685.75,107.597 L 685.75,107.597 z "
   style="fill:#253778"
   id="path62" />
		</g>
	</g>
</svg>